<?xml version="1.0" encoding="utf-8"?>
<!-- Generator: Adobe Illustrator 19.0.0, SVG Export Plug-In . SVG Version: 6.00 Build 0)  -->
<svg version="1.1" id="Layer_1" xmlns="http://www.w3.org/2000/svg" xmlns:xlink="http://www.w3.org/1999/xlink" x="0px" y="0px"
	 viewBox="-50 0 500 500" style="enable-background:new 0 0 500 500;" xml:space="preserve">
<g id="XMLID_1_">
	<path id="XMLID_3_" d="M127.6,421.6c0,5.7-2.1,8.3-6.8,8.3c-5,0-7-2.2-7-7.5c0-3.3,0-6.6,0.1-9.9l0.1-6.9l-0.3,0h-2.7l-0.1,7.1
		c0,3.2-0.1,6.5-0.1,9.8c0,6.9,3,10,9.7,10c6.9,0,10-3.4,10.1-11.1l0.2-15.8h-2.9L127.6,421.6z"/>
	<path id="XMLID_4_" d="M164,413.4c0,3.5-0.1,7.1-0.1,10.7c0,1.2,0,2.4,0.1,3.5c-0.8-1.4-1.7-2.7-2.5-3.9l-12.6-18.6l-0.2,0.1
		l-2.8,0.9l-0.2,26h2.9l0-0.3c0-0.1,0.1-12.3,0.1-18.4c0-1.1,0-2.3-0.1-3.4c0.8,1.3,1.6,2.6,2.5,3.9l12.6,18.6l3.1-0.9l0.2-26h-2.9
		L164,413.4z"/>
	<polygon id="XMLID_5_" points="182.7,405.6 182.5,432.1 185.5,432.1 185.7,405.6 185.4,405.6 	"/>
	<path id="XMLID_6_" d="M219.2,405.4L211,426c-0.3,0.8-0.6,1.5-0.8,2.2c-0.2-0.8-0.5-1.5-0.7-2.1l-8-20.9l-3,0.9l10.2,26h2.8
		l10.7-26l-2.8-1L219.2,405.4z"/>
	<path id="XMLID_7_" d="M234.7,405.6l-0.2,26.5h14.5v-2.7c0,0-10.8,0-11.4,0c0-0.6,0.1-9,0.1-9.6c0.6,0,11.2,0,11.2,0v-2.7
		c0,0-10.6,0-11.2,0c0-0.6,0.1-8.3,0.1-8.8c0.6,0,11.2,0,11.2,0v-2.7h-0.3H234.7z"/>
	<path id="XMLID_8_" d="M302.8,407.7c2.1,0,3.6,0.4,5.6,1.4l0.3,0.1l1.5-2.4l-0.3-0.2c-2.1-1.1-4.2-1.6-7.1-1.6
		c-3.9,0-7.8,2.4-7.8,6.9c0,4.6,3.4,6.2,6.5,7.7c2.7,1.3,5.3,2.5,5.3,5.6c0,2.8-2,4.6-5.2,4.6c-2.1,0-4.3-0.6-5.9-1.5l-0.3-0.2
		l-1.5,2.4l0.3,0.2c1.7,1.1,5,1.7,7.3,1.7c5.2,0,8.6-2.9,8.6-7.4c0-4.7-3.6-6.5-6.8-8c-2.7-1.3-5-2.4-5-4.9
		C298,409.6,300,407.7,302.8,407.7z"/>
	<polygon id="XMLID_9_" points="325.1,405.6 324.9,432.1 327.9,432.1 328.1,405.6 327.8,405.6 	"/>
	<path id="XMLID_10_" d="M342.1,405.6v2.7c0,0,7.6,0,8.2,0c0,0.6-0.2,23.8-0.2,23.8h3c0,0,0.2-23.2,0.2-23.8c0.6,0,8.2,0,8.2,0v-2.7
		h-0.3H342.1z"/>
	<path id="XMLID_11_" d="M383.2,414.3c-0.5,0.8-1.4,2.1-1.9,2.8c-0.4-0.6-1-1.6-1.6-2.5l-6.5-9.6l-0.3,0.1l-2.4,1.3
		c0,0,9.1,13.4,9.2,13.5c0,0.2-0.1,12.1-0.1,12.1h3c0,0,0.1-12.2,0.1-12.4c0.1-0.2,9.6-13.3,9.6-13.3l-2.6-1.3L383.2,414.3z"/>
	<path id="XMLID_14_" d="M274.1,419.6c3.3-0.8,6.6-3.5,6.6-7.4c0-4.6-3-7-8.7-7c-1.8,0-3.7,0.1-5.5,0.2l-1.7,0.1l0,0.3l-0.2,26.2h3
		c0,0,0.1-11.2,0.1-11.8c0.4,0,1.6,0,1.6,0l0,0l0,0c1.2,0,2.3,0.4,2.9,1.2c0.5,0.7,7.7,10.7,7.8,10.8l0.2,0.2l2.8-1.3l-7.4-10.2
		C275.3,420.6,274.8,420.1,274.1,419.6z M277.5,412.5c0,3.6-3.2,5.1-5.9,5.2l-1.9,0c0,0-1.6,0-2.1,0c0-0.6,0.1-9.2,0.1-9.8
		c1.3-0.1,2.8-0.1,4.3-0.1C275.6,407.8,277.5,409.4,277.5,412.5z"/>
	<path id="XMLID_15_" d="M275.5,421L275.5,421L275.5,421z"/>
	<path id="XMLID_16_" d="M133.8,356.3c-0.6,0-1.2,0-1.7,0.1l-0.1,0c-0.6,0-1.1,0.1-1.7,0.1c-0.8,0-1.6,0-2.3-0.1l-0.1,0l-1.8-0.1
		h-0.3v1.7h0.9c1.7,0,2.1,0.3,2.1,0.9c0,0.4-0.1,1-0.5,2c0,0-4.7,12-5.8,14.8c-0.4-1.1-6.2-15.9-6.2-15.9c-0.2-0.5-0.3-1-0.3-1.1
		c0-0.4,0.6-0.7,1.6-0.7h1.2v-1.7h-0.3l-2.1,0.1l-0.1,0c-1.1,0-2.4,0.1-3.4,0.1c-1,0-2,0-2.9-0.1l-0.1,0c-0.9,0-1.9-0.1-2.8-0.1
		h-0.3v1.7h0.7c1.5,0,2.2,0.3,2.8,1.9l9.7,23.5h1.8l0.1-0.2c0.3-0.6,1.5-3.7,3.1-7.5l0.7-1.8c1.9-4.7,5.9-14.4,6.1-14.8
		c0.5-1.1,1.1-1.1,1.7-1.1h0.7v-1.7H133.8L133.8,356.3z"/>
	<path id="XMLID_19_" d="M140.1,380.2c0-0.4,0.2-0.9,0.4-1.6l0,0l0.4-1.2c0,0,0.9-2.9,1.1-3.6c0.4,0,7.6,0,8,0
		c0.1,0.3,1.4,4.1,1.4,4.1c0.4,1.1,0.7,2.1,0.7,2.6c0,0.8-1.4,0.8-1.8,0.8h-0.7v1.7l1.2,0c1.5-0.1,3-0.1,4.5-0.1
		c1.8,0,3.5,0.1,5.1,0.1l0.4,0v-1.8h-0.5c-1.1,0-1.8-0.4-2.2-1.3c-0.4-0.9-0.8-2-1.1-3.1l-0.2-0.7l-6.7-18.8l0,0
		c0-0.1-0.1-0.3-0.4-0.9c-0.1-0.3-0.3-0.3-0.5-0.3l-0.1,0l-0.1,0l-0.3,0l-1,0.1l-0.1,0c-0.6,0-0.9,0-1.8,0l-0.3,0l-0.1,0.2
		c-0.2,0.9-0.7,2.3-1.2,3.6l-0.2,0.6l-0.5,1.3l-6,17.1c-0.5,1.4-1.6,2.2-2.9,2.2h-0.5v1.8l0.4,0c1.3-0.1,2.7-0.1,4-0.1
		c1.5,0,3,0.1,4.4,0.1l0.1,0l0.3,0v-1.7h-0.7C141.8,381.2,140.1,381.1,140.1,380.2z M142.9,371c0.2-0.6,2.8-8.4,3.1-9.3
		c0.7,2.1,2.6,7.9,3,9.3C148.4,371,143.5,371,142.9,371z"/>
	<path id="XMLID_20_" d="M192.8,356.4c-0.7,0-1.5,0.1-2.2,0.1c-0.9,0-1.8,0-2.6-0.1l-0.1,0c-0.8,0-1.7-0.1-2.6-0.1h-0.1H185v1.7h1.1
		c1.1,0,2.8,0.4,2.8,3.2c0,0.1,0.1,10.5,0.1,13.3c-0.8-0.9-16.2-18.2-16.2-18.2h-0.1c-0.6,0-1.2,0-1.7,0.1c-0.5,0-1.1,0.1-1.6,0.1
		c-0.7,0-1.4,0-2-0.1c-0.6,0-1.3-0.1-2.1-0.1H165l0,1.6l0.8,0c0.7,0,1.4,0.3,1.9,0.8c0.6,0.6,0.9,1.4,0.9,2.3l-0.1,15.7
		c0,2.8-0.5,4.5-2.8,4.5l-0.8,0v1.7h0.3c0.8,0,1.7,0,2.5-0.1h0c0.7,0,1.6-0.1,2.5-0.1c0.8,0,1.7,0,2.4,0.1l0,0
		c0.8,0,1.6,0.1,2.4,0.1h0.3v-1.7h-1c-2.4,0-3.1-0.9-3.1-4c0,0-0.1-11.6-0.1-14.5c2.9,3.2,18.5,20.6,18.6,20.8l0.1,0.1h1.9l-0.1-0.4
		c-0.2-1.2-0.2-2.5-0.2-3.7l0.1-16.9c0-4.4,1.6-4.4,2.8-4.4l0.9,0v-1.7H195C194.2,356.3,193.4,356.4,192.8,356.4z"/>
	<path id="XMLID_23_" d="M225,359.9c-2.7-2.4-6.5-3.6-11-3.6l-2.3,0.1l-0.4,0c-1,0-2.1,0.1-3.3,0.1c-1.3,0-2.7-0.1-3.8-0.1l-0.2,0
		l-0.5,0l-1.4,0h-0.3v1.7h0.8c1.5,0,2.4,0.3,2.4,1.8v19.5c0,1.7-1,1.8-2.3,1.8l-0.8,0v1.7h0.3l1.7,0c1.1,0,2.7-0.1,4.3-0.1
		c2.5,0,5.2,0.1,6.8,0.1c3.7,0.2,7.2-1.1,9.9-3.6c2.7-2.5,4.2-6.1,4.2-9.8C229.1,365.6,227.7,362.3,225,359.9z M223.2,370.2
		c0,2.8-0.8,5.4-2.4,7.3c-1.7,2-4.1,3.1-6.9,3.1c-2.5,0-3.6-0.2-3.6-2.6c0,0,0-18.8,0-19.2c0.1,0,0.3,0,0.3,0l0.1,0
		c0.6-0.1,1.2-0.1,1.8-0.1c3.4,0,5.8,0.7,7.5,2.2C222.2,362.7,223.2,365.8,223.2,370.2z"/>
	<path id="XMLID_24_" d="M255.1,376.4c-0.5,2-1.1,3-2.1,3.5c-1,0.5-2.4,0.5-4.6,0.5h-0.1c-2.6,0-4.2-0.1-4.2-2.1c0,0,0-7.7,0-8.1
		c0.5,0,4.3,0,4.3,0c2.2,0,2.4,0.9,2.7,3.2l0,0.1l0,0.3l1.6-0.4v-0.3c-0.1-1.5-0.1-2.7-0.1-4c0-1.4,0-2.4,0.1-3.9l0-0.3l-1.6,0
		l0,0.3c-0.2,2-0.8,2.5-2.8,2.5c0,0-3.8,0-4.2,0c0-0.5,0-8.4,0-8.9c0.5,0,4.9,0,4.9,0c3.7,0,4,1.2,4.2,3.6l0,0.4l1.6-0.4l0-0.3
		c-0.1-1.4,0-3.3,0.1-4.8l0-0.9l-0.3,0l-0.1,0l-4,0.1l-0.4,0c-1.8,0-3.6,0.1-5.2,0.1c-1.6,0-3.5,0-5.2-0.1l-0.2,0
		c-1.5,0-2.9-0.1-3.9-0.1h-0.3v1.7h0.8c1.5,0,2.4,0.3,2.4,1.8v19.5c0,1.6-0.8,1.9-2.2,1.9h-0.8v1.6h0.3l3.8-0.1l0.6,0
		c1.7,0,3.6-0.1,5.2-0.1c1.7,0,3.6,0,5.3,0.1l0.4,0l4.1,0.1h0.3l0-0.3l0.3-2c0.2-1.3,0.3-2.4,0.7-3.7l0-0.1l0.1-0.3l-1.6-0.4
		L255.1,376.4z"/>
	<path id="XMLID_28_" d="M311.1,368.4c2.6-0.8,5.2-2.4,5.2-5.9c0-1.8-0.7-3.3-2-4.4c-1.5-1.2-3.8-1.8-6.8-1.8l-2.5,0.1l-0.2,0
		c-1.1,0-2.2,0.1-3.3,0.1c-1.1,0-2.2,0-3.2-0.1l-0.2,0l-2.4-0.1h-0.3v1.7h0.8c1.5,0,2.4,0.3,2.4,1.8v19.5c0,1.5-0.9,1.8-2.4,1.8
		h-0.8v1.7h0.3l2.5-0.1l0.3,0c1.2,0,2.5-0.1,3.7-0.1c1.2,0,2.4,0,3.6,0.1c1.1,0,2,0.1,2.9,0.1c2.4,0,4.7-0.8,6.4-2.2
		c1.7-1.5,2.7-3.4,2.7-5.4c0-1.8-0.7-3.4-1.9-4.6C314.8,369.4,313,368.6,311.1,368.4z M305.6,367.6c0,0-1,0-1.5,0c0-0.5,0-8.6,0-9.1
		c0.4,0,1.9,0,1.9,0c2.3,0,4.7,0.6,4.7,4.7C310.6,366.1,309,367.6,305.6,367.6z M312.3,375.4c0,3.1-2.2,5.3-5.2,5.3
		c-2.6,0-3-0.4-3-2.9c0,0,0-7.6,0-8.1c0.4,0,2.1,0,2.1,0c1.9,0,3.4,0.5,4.4,1.3C311.7,372.1,312.3,373.5,312.3,375.4z"/>
	<path id="XMLID_29_" d="M337,356.3c-0.9,0-1.9,0-2.8,0.1l-0.2,0c-0.9,0-1.9,0.1-2.7,0.1c-0.9,0-2,0-3-0.1l-0.3,0l-2.3-0.1h-0.3v1.7
		h0.8c1.5,0,2.4,0.3,2.4,1.8v19.5c0,1.5-0.9,1.8-2.4,1.8h-0.8v1.7h0.3c0.7,0,1.5,0,2.4-0.1c1,0,2.1-0.1,3-0.1c0.9,0,1.8,0,2.7,0.1
		l0.3,0c1,0,1.9,0.1,2.8,0.1h0.3v-1.7h-0.8c-1.5,0-2.4-0.3-2.4-1.8v-19.5c0-1.5,0.9-1.8,2.4-1.8h0.8v-1.7H337L337,356.3z"/>
	<path id="XMLID_30_" d="M365.4,376.3c-0.2,0.8-0.5,1.4-1,2.2c-0.7,0.9-1.9,1.6-3.3,1.8c-1.6,0.2-2.8,0.2-4.4,0.1
		c-1.4-0.2-1.9-0.7-1.9-1.8v-18.9c0-1.7,0.8-1.7,2.2-1.7h1.2v-1.7H358h-0.1c-0.9,0-1.9,0-2.8,0.1l-0.1,0c-0.8,0-1.8,0.1-2.8,0.1
		c-1,0-2,0-2.9-0.1l-0.1,0c-0.9,0-1.9-0.1-2.9-0.1h-0.3v1.7h0.8c1.6,0,2.5,0.3,2.5,1.8V379c0,2-1.2,2.2-2.5,2.2h-0.8v1.7h0.3
		c1.6,0,3.3,0,4.8-0.1l0.1,0c1.4,0,3.2-0.1,4.9-0.1c1.7,0,3.3,0,4.7,0.1l0.1,0c1.5,0,3,0.1,4.6,0.1h0.3l0-0.3c0.3-1.4,0.5-2.8,0.8-4
		l0.5-2.5h-1.7L365.4,376.3z"/>
	<path id="XMLID_33_" d="M286.5,379.1c0,0-1.2-1.6-2.9-3.9l-1.9-2.6c-0.8-1.1-1.5-1.8-2.1-2.1c2.6-1.2,5.3-3.6,5.3-7.2
		c0-2.5-0.9-4.4-2.8-5.6c-1.5-0.9-3.6-1.4-6.4-1.4c-1,0-1.9,0-2.8,0.1c-0.9,0-2,0.1-3.2,0.1c-1.3,0-2.7-0.1-3.7-0.1l-0.4,0l-1.6,0
		h-0.3v1.7h1c1.3,0,2.3,0.2,2.3,2.5v18.9c0,1.6-1.7,1.7-2.2,1.7l-1,0v1.7h0.3c0.9,0,1.8,0,2.6-0.1l0,0c0.8,0,1.6-0.1,2.5-0.1
		c1.1,0,2.3,0,3.2,0.1l0,0c1,0,2.1,0.1,3.2,0.1h0.3v-1.7h-1c-1.7,0-2.7-0.1-2.7-2.7c0,0,0-6.6,0-7.1l0.2,0l1.5,0
		c0.5,0,0.9,0.2,1.3,0.7c1.5,2.2,3.4,5,6.1,8.7c1.5,2,3.4,2,4.8,2l4.2,0v-1.7h-0.3C288.3,381.1,287.7,380.9,286.5,379.1z
		 M279.4,363.5c0,2-0.5,3.5-1.4,4.4c-0.9,0.9-2.2,1.3-3.9,1.3c0,0-1.2-0.1-1.6-0.1c0-0.4,0-10,0-10.5l0.2,0c0.4-0.1,0.9-0.1,1.6-0.1
		C277.4,358.5,279.4,360.4,279.4,363.5z"/>
	<path id="XMLID_34_" d="M392.9,356.2l-0.8,0.1l-0.1,0l-1.7,0h-17.9c-0.9,0-1.5,0-2.1-0.1l-0.1,0l-1.1-0.1l-0.3,0v0.3v0.1
		c0,0.8,0,1.2-0.1,2.2l0,0.2l-0.4,3l-0.1,0.4h1.8l0-0.3c0.5-2.6,0.6-3.1,3.2-3.1c0,0,4.5,0,5,0c0,0.5,0,19.4,0,19.4
		c0,2.7-0.9,2.8-2.8,2.8h-1v1.7h0.3l2.5-0.1l0.4,0c1.1,0,2.3-0.1,3.4-0.1c1,0,2.2,0,3.2,0.1l0.3,0l2.6,0.1h0.3v-1.7h-1
		c-1.6,0-2.8-0.2-2.8-2.9c0,0,0-18.8,0-19.3c0.5,0,5.2,0,5.2,0c2.3,0,2.4,2.1,2.5,3.2l0,0.4l1.7-0.4v-0.2l0-2.7l0-0.2
		c0-0.7,0.1-1.6,0.1-2.3l0-0.4L392.9,356.2z"/>
	<path id="XMLID_37_" d="M265.3,67.6c0,3.8,0,13.4,0,15.2c1.1,0,4.2,0,6,0c5.9,0,14.3,0,17.6,3.2c6.4,6.8-1.9,13-9.6,23.4
		c-12.1,16.1-4.6,26.6,3.4,21c4.6-3.4,14.6-10.8,19.5-13.3c10.2-4.8,16.7,8,6.1,22c-4.2,5.7-12.2,13-17.4,20.6
		c-6.4,9.2-3.4,21.6,8.9,12.4c14.2-10.7,19.2,5.9,4.2,21.4c-13.7,14.7-22.1,25.4-18.1,38.2c1.5,4.7,3.3,9.8,4.8,14.3
		c0.2,0.5,0.5,0.8,0.5,0.8l-0.3,0.6c0,0-0.3-0.2-1.3-0.2h-8.6c-0.5-1.3-5-13.5-9.8-26.6c-1.5-3.9-3.5-6.7-12.9-9.5
		c-2-0.6-3.7-1.1-4.7-1.4c-1.6-0.4-2.4-0.2-3.6,0.6c-2.2,1.6-5,3.7-6.1,4.5c-5.7,4.2-8.4,5.5-10.9,4.9c-1.9-0.5-2.8-1.9-2.8-4.4
		c0-0.2,0-0.6,0-0.7c2.7-4.4,4.8-9.1,6.3-14.1c1.5-5,2.3-10.1,2.5-15.3c0.1-0.1,0.2-0.4,0.4-0.5c1.3-2,2.9-2.7,4.7-2.1
		c2.4,0.8,4,3.5,6.4,10c0.4,1.2,1.6,4.3,2.5,6.9c0.6,1.5,1.2,2.2,3.1,2.8c1.6,0.5,4.7,1.4,8,2.4c0.3,0.1,0.6,0.4,0.7,0.5l0.6-0.6
		c0,0-0.4-0.4-0.6-0.8c-3.4-9.1-6-16.2-6.2-16.8c-4-10.5-6.6-14.8-14.1-20.3c-7.2-5.1-18.3-9.1-24.6-12.8
		c-19.1-10.9-15.8-26.5-5-25.9c4.2,0.1,13.6,3.6,20.4,6.2c11.7,4.3,12.1-10.1-3.1-21.2c-19.3-14.1-22.9-21.5-18.4-27.2
		c2.4-3.1,9-3.1,15.6-3c1.2,0,4.5,0,5.3,0c0-3.8,0-11,0-15.2l-126.9-0.1l0,15.3c3.2,0,5.7,0.1,9.4,0.4c10.6,0.9,18.7,6.1,27.1,27.8
		c7.4,19.5,68.4,174,74.7,190.4c1.7,0,61.8,0,61.8,0c5.3-13.6,64.9-166.6,74.6-191.1c8.6-21.8,17.9-26.1,28.1-26.9
		c2.4-0.2,5.5-0.3,8-0.3V67.6L265.3,67.6z M219.9,210.7c-8.1-2.9-11.2-5.4-12.1-13.8c-0.3-2.1-0.3-5-0.3-5s1.7-2.4,3-4
		c5.4-6.5,9.3-6.9,17.7-4.9c0.9,0.2,4.4,1,7.2,1.6c-0.1,5-0.9,10-2.3,14.9c-1.5,4.9-3.6,9.5-6.3,13.8
		C224.1,212.3,220.8,211,219.9,210.7z"/>
</g>
</svg>
