<svg xmlns="http://www.w3.org/2000/svg" viewBox="0 0 110 100" width="110" height="100" preserveAspectRatio="xMidYMid meet" style="width: 100%; height: 100%; transform: translate3d(0px, 0px, 0px);"><defs><clipPath id="__lottie_element_2"><rect width="300" height="100" x="0" y="0"></rect></clipPath><clipPath id="__lottie_element_7"><path d="M0,0 L1080,0 L1080,1080 L0,1080z"></path></clipPath></defs><g clip-path="url(#__lottie_element_2)"><g clip-path="url(#__lottie_element_7)" transform="matrix(0.13500000536441803,0,0,0.13500000536441803,-8.900001525878906,-21.400001525878906)" opacity="1" style="display: block;"><g transform="matrix(3.7638399600982666,0,0,3.7638399600982666,2118.1845703125,1254.1524658203125)" opacity="1" style="display: block;"><g opacity="1" transform="matrix(1,0,0,1,-70.43801879882812,-119.83000183105469)"><path fill="#feed5a" fill-opacity="1" d=" M-272.41900634765625,-71.20500183105469 C-271.4200134277344,-36.01900100708008 -276.11700439453125,15.305999755859375 -309.58099365234375,16.270000457763672 C-343.0450134277344,17.233999252319336 -370.57000732421875,-9.381999969482422 -387.1719970703125,-27.148000717163086 C-406.27801513671875,-47.59400177001953 -415.8429870605469,-69.11399841308594 -416.8240051269531,-97.4800033569336 C-418.0679931640625,-133.4550018310547 -393.5249938964844,-163.96499633789062 -353.69500732421875,-163.4149932861328 C-300.72900390625,-162.6840057373047 -273.96600341796875,-125.70500183105469 -272.41900634765625,-71.20500183105469z"></path></g></g><g transform="matrix(3.7747762203216553,0,0,3.832210063934326,2794.81201171875,1530.2763671875)" opacity="1" style="display: none;"><g opacity="1" transform="matrix(1,0,0,1,0,0)"><path fill="#022349" fill-opacity="1" d=" M-640.9450073242188,-213.73599243164062 C-640.9450073242188,-213.73599243164062 -640.9539794921875,-203.03799438476562 -640.9539794921875,-203.03799438476562 C-640.9539794921875,-203.03799438476562 -561.3309936523438,-203.4250030517578 -561.3309936523438,-203.4250030517578 C-561.3309936523438,-203.4250030517578 -561.7059936523438,-213.9010009765625 -561.7059936523438,-213.9010009765625 C-561.7059936523438,-213.9010009765625 -640.9450073242188,-213.73599243164062 -640.9450073242188,-213.73599243164062z"></path></g></g><g transform="matrix(3.832210063934326,0,0,3.832210063934326,2829.33544921875,1530.2763671875)" opacity="1" style="display: none;"><g opacity="1" transform="matrix(1,0,0,1,0,0)"><path fill="#022349" fill-opacity="1" d=" M-560.8311767578125,-261.4880065917969 C-560.8311767578125,-261.4880065917969 -640.298095703125,-258.5655517578125 -640.298095703125,-258.5655517578125 C-640.298095703125,-258.5655517578125 -639.9789428710938,-247.69668579101562 -639.9789428710938,-247.69668579101562 C-639.9789428710938,-247.69668579101562 -579.1978759765625,-250.3364715576172 -579.1978759765625,-250.3364715576172 C-579.1978759765625,-250.3364715576172 -640.8889770507812,-214.28399658203125 -640.8889770507812,-214.28399658203125 C-640.8889770507812,-214.28399658203125 -640.9450073242188,-213.73599243164062 -640.9450073242188,-213.73599243164062 C-640.9450073242188,-213.73599243164062 -640.9539794921875,-203.03799438476562 -640.9539794921875,-203.03799438476562 C-640.9539794921875,-203.03799438476562 -621.9840087890625,-202.52999877929688 -597.5859985351562,-202.52999877929688 C-580.4089965820312,-202.52999877929688 -576.6690063476562,-202.98300170898438 -569.3740234375,-203.1999969482422 C-568.2230224609375,-203.2270050048828 -561.844970703125,-203.33399963378906 -561.4580078125,-203.3489990234375 C-561.1749877929688,-203.5279998779297 -561.3309936523438,-203.4250030517578 -561.3309936523438,-203.4250030517578 C-561.3309936523438,-203.4250030517578 -561.7059936523438,-213.9010009765625 -561.7059936523438,-213.9010009765625 C-561.7059936523438,-213.9010009765625 -575.0549926757812,-213.5 -575.0549926757812,-213.5 C-575.0549926757812,-213.5 -597.197021484375,-213.08099365234375 -597.197021484375,-213.08099365234375 C-597.197021484375,-213.08099365234375 -620.259765625,-213.31236267089844 -620.259765625,-213.31236267089844 C-620.259765625,-213.31236267089844 -561.1666870117188,-247.99261474609375 -561.1666870117188,-247.99261474609375 C-561.1666870117188,-247.99261474609375 -560.8311767578125,-261.4880065917969 -560.8311767578125,-261.4880065917969z"></path></g></g><g transform="matrix(3.832210063934326,0,0,3.832210063934326,2829.33544921875,1530.2763671875)" opacity="1" style="display: block;"><g opacity="1" transform="matrix(1,0,0,1,0,0)"><path fill="#022349" fill-opacity="1" d=" M-560.5659790039062,-319.718994140625 C-560.5659790039062,-319.718994140625 -640.10400390625,-319.47601318359375 -640.10400390625,-319.47601318359375 C-640.10400390625,-319.47601318359375 -640.1090087890625,-308.3479919433594 -640.1090087890625,-308.3479919433594 C-640.1090087890625,-308.3479919433594 -574.4290161132812,-308.489990234375 -574.4290161132812,-308.489990234375 C-574.4290161132812,-308.489990234375 -640.8880004882812,-214.28399658203125 -640.8880004882812,-214.28399658203125 C-640.8880004882812,-214.28399658203125 -640.9390258789062,-213.73699951171875 -640.9390258789062,-213.73699951171875 C-640.9390258789062,-213.73699951171875 -640.85400390625,-205.42999267578125 -640.85400390625,-205.42999267578125 C-640.85400390625,-205.42999267578125 -622.0050048828125,-196.49400329589844 -597.7340087890625,-196.49200439453125 C-580.593994140625,-196.49000549316406 -562.6649780273438,-203.5290069580078 -556.1699829101562,-207.16400146484375 C-555.3049926757812,-207.61199951171875 -554.64599609375,-207.99000549316406 -554.239013671875,-208.24400329589844 C-553.9180297851562,-208.44500732421875 -553.8469848632812,-208.51499938964844 -553.8469848632812,-208.51499938964844 C-553.8469848632812,-208.51499938964844 -559.823974609375,-218.69400024414062 -559.823974609375,-218.69400024414062 C-559.823974609375,-218.69400024414062 -567.5499877929688,-214.71099853515625 -574.9329833984375,-212.38800048828125 C-582.0289916992188,-210.09300231933594 -590.468994140625,-208.52699279785156 -597.197998046875,-208.62600708007812 C-614.7730102539062,-208.67300415039062 -627.0540161132812,-213.3350067138672 -627.0540161132812,-213.3350067138672 C-627.0540161132812,-213.3350067138672 -560.5120239257812,-307.59698486328125 -560.5120239257812,-307.59698486328125 C-560.5120239257812,-307.59698486328125 -560.5659790039062,-319.718994140625 -560.5659790039062,-319.718994140625z"></path></g></g><g transform="matrix(3.75,0,0,3.75,668.2239990234375,525.3909912109375)" opacity="1" style="display: block;"><g opacity="1" transform="matrix(1,0,0,1,0,0)"><path fill="#022349" fill-opacity="1" d=" M9,0 C9,3.8499999046325684 6.570000171661377,7.130000114440918 3.1700000762939453,8.40999984741211 C2.180000066757202,8.789999961853027 1.1200000047683716,9 0,9 C-1.1200000047683716,9 -2.190000057220459,8.789999961853027 -3.1700000762939453,8.40999984741211 C-6.579999923706055,7.130000114440918 -9,3.8499999046325684 -9,0 C-9,-3.8499999046325684 -6.579999923706055,-7.130000114440918 -3.1700000762939453,-8.40999984741211 C-2.190000057220459,-8.789999961853027 -1.1200000047683716,-9 0,-9 C1.1200000047683716,-9 2.180000066757202,-8.789999961853027 3.1700000762939453,-8.40999984741211 C6.570000171661377,-7.130000114440918 9,-3.8499999046325684 9,0z"></path></g></g><g transform="matrix(3.75,0,0,3.75,382.7239990234375,525.3909912109375)" opacity="1" style="display: block;"><g opacity="1" transform="matrix(1,0,0,1,0,0)"><path fill="#022349" fill-opacity="1" d=" M9,0 C9,3.8499999046325684 6.570000171661377,7.130000114440918 3.1700000762939453,8.40999984741211 C2.180000066757202,8.789999961853027 1.1200000047683716,9 0,9 C-1.1200000047683716,9 -2.190000057220459,8.789999961853027 -3.1700000762939453,8.40999984741211 C-6.579999923706055,7.130000114440918 -9,3.8499999046325684 -9,0 C-9,-3.8499999046325684 -6.579999923706055,-7.130000114440918 -3.1700000762939453,-8.40999984741211 C-2.190000057220459,-8.789999961853027 -1.1200000047683716,-9 0,-9 C1.1200000047683716,-9 2.180000066757202,-8.789999961853027 3.1700000762939453,-8.40999984741211 C6.570000171661377,-7.130000114440918 9,-3.8499999046325684 9,0z"></path></g></g></g><g fill="#03244a" font-size="45" font-family="Sharp Sans No1" font-style="normal" font-weight="700" aria-label="Zocdoc" transform="matrix(1,0,0,1,119,53.5)" opacity="0" style="display: block;"><path stroke-linecap="butt" stroke-linejoin="round" stroke-miterlimit="4" d=" M1.59,0 C1.59,0 23.48,0 23.48,0 C23.48,0 23.48,-6.03 23.48,-6.03 C23.48,-6.03 9.02,-6.03 9.02,-6.03 C9.02,-6.03 23.48,-27.33 23.48,-27.33 C23.48,-27.33 23.48,-33.08 23.48,-33.08 C23.48,-33.08 2.08,-33.08 2.08,-33.08 C2.08,-33.08 2.08,-27.06 2.08,-27.06 C2.08,-27.06 16,-27.06 16,-27.06 C16,-27.06 1.59,-5.8 1.59,-5.8 C1.59,-5.8 1.59,0 1.59,0z M37.3,0.45 C43.83,0.45 49.04,-4.8 49.04,-11.33 C49.04,-17.86 43.83,-23.11 37.3,-23.11 C30.78,-23.11 25.57,-17.86 25.57,-11.33 C25.57,-4.8 30.78,0.45 37.3,0.45z M37.3,-5.44 C34.09,-5.44 31.64,-8.11 31.64,-11.33 C31.64,-14.55 34.09,-17.22 37.3,-17.22 C40.48,-17.22 43.01,-14.55 43.01,-11.33 C43.01,-8.11 40.48,-5.44 37.3,-5.44z M62.64,0.45 C67.81,0.45 71.79,-2.49 73.56,-6.71 C73.56,-6.71 68.03,-9.06 68.03,-9.06 C67.17,-6.93 65.09,-5.44 62.68,-5.44 C59.42,-5.44 56.88,-8.07 56.88,-11.33 C56.88,-14.59 59.42,-17.22 62.68,-17.22 C65.09,-17.22 67.17,-15.73 68.03,-13.6 C68.03,-13.6 73.56,-15.95 73.56,-15.95 C71.79,-20.17 67.81,-23.11 62.64,-23.11 C56.11,-23.11 50.9,-17.86 50.9,-11.33 C50.9,-4.8 56.11,0.45 62.64,0.45z M85.67,0.45 C88.62,0.45 91.02,-0.77 92.52,-2.54 C92.52,-2.54 92.52,0 92.52,0 C92.52,0 98.73,0 98.73,0 C98.73,0 98.73,-33.08 98.73,-33.08 C98.73,-33.08 92.52,-33.08 92.52,-33.08 C92.52,-33.08 92.52,-20.44 92.52,-20.44 C91.02,-22.02 88.71,-23.11 85.76,-23.11 C80.64,-23.11 74.75,-19.35 74.75,-11.33 C74.75,-3.35 80.87,0.45 85.67,0.45z M86.9,-5.26 C83.45,-5.26 80.82,-7.89 80.82,-11.38 C80.82,-14.86 83.45,-17.45 86.9,-17.45 C90.25,-17.45 92.7,-14.73 92.7,-11.38 C92.7,-8.02 90.25,-5.26 86.9,-5.26z M112.77,0.45 C119.29,0.45 124.51,-4.8 124.51,-11.33 C124.51,-17.86 119.29,-23.11 112.77,-23.11 C106.24,-23.11 101.03,-17.86 101.03,-11.33 C101.03,-4.8 106.24,0.45 112.77,0.45z M112.77,-5.44 C109.55,-5.44 107.1,-8.11 107.1,-11.33 C107.1,-14.55 109.55,-17.22 112.77,-17.22 C115.94,-17.22 118.48,-14.55 118.48,-11.33 C118.48,-8.11 115.94,-5.44 112.77,-5.44z M138.1,0.45 C143.27,0.45 147.26,-2.49 149.03,-6.71 C149.03,-6.71 143.5,-9.06 143.5,-9.06 C142.64,-6.93 140.55,-5.44 138.15,-5.44 C134.89,-5.44 132.35,-8.07 132.35,-11.33 C132.35,-14.59 134.89,-17.22 138.15,-17.22 C140.55,-17.22 142.64,-15.73 143.5,-13.6 C143.5,-13.6 149.03,-15.95 149.03,-15.95 C147.26,-20.17 143.27,-23.11 138.1,-23.11 C131.58,-23.11 126.37,-17.86 126.37,-11.33 C126.37,-4.8 131.58,0.45 138.1,0.45z" style="display: inherit;" fill="#03244a"></path></g></g></svg>